<svg xmlns="http://www.w3.org/2000/svg" width="34" height="34" viewBox="0 0 34 34"><defs><style>.a{fill:#fff;}.b{fill:#007a9c;}</style></defs><g transform="translate(-1552.603 -45.603)"><circle class="a" cx="17" cy="17" r="17" transform="translate(1552.603 45.603)"/><path class="b" d="M16.442,14.714c-2.381-.619-3.147-1.254-3.147-2.25,0-1.143,1.054-1.946,2.832-1.946,1.867,0,2.56.892,2.623,2.2h2.318a4.176,4.176,0,0,0-3.368-4v-2.3H14.554V8.693c-2.035.446-3.672,1.757-3.672,3.787,0,2.423,2.009,3.63,4.931,4.333,2.628.629,3.147,1.547,3.147,2.534,0,.719-.509,1.873-2.832,1.873-2.161,0-3.016-.97-3.126-2.2H10.688c.131,2.3,1.846,3.583,3.866,4.018V25.31H17.7V23.055c2.04-.393,3.672-1.574,3.672-3.729,0-2.969-2.549-3.986-4.931-4.611Z" transform="translate(1553.573 46.693)"/></g></svg>