<svg xmlns="http://www.w3.org/2000/svg" xmlns:xlink="http://www.w3.org/1999/xlink" width="216" height="216" viewBox="0 0 216 216"><defs><style>.a{fill:#fff;stroke:#007a9c;stroke-width:3px;}.b{fill:#007a9c;stroke:#fff;}.c{stroke:none;}.d{fill:none;}.e{filter:url(#a);}</style><filter id="a" x="0" y="0" width="216" height="216" filterUnits="userSpaceOnUse"><feOffset dy="3" input="SourceAlpha"/><feGaussianBlur stdDeviation="3" result="b"/><feFlood flood-opacity="0.161"/><feComposite operator="in" in2="b"/><feComposite in="SourceGraphic"/></filter></defs><g transform="translate(9 6)"><g transform="translate(-210.867 -4481.867)"><g class="e" transform="matrix(1, 0, 0, 1, 201.87, 4475.87)"><g class="a" transform="translate(9 6)"><circle class="c" cx="99" cy="99" r="99"/><circle class="d" cx="99" cy="99" r="97.5"/></g></g><g transform="translate(238.196 4531.756)"><path class="b" d="M141.34,131.566,117.586,100.71a2.783,2.783,0,0,0-3.7-.65l-15.336,9.753h-20a2.758,2.758,0,0,0-.766.128l-15.508,4.464L46.184,110,30.548,100.06a2.781,2.781,0,0,0-3.659.6L.617,133.2a2.782,2.782,0,0,0,.351,3.857l13.77,11.851,12.354,16.648a9.826,9.826,0,0,0,6.181,16.505,9.9,9.9,0,0,0-.115,1.5,9.835,9.835,0,0,0,9.835,9.835c.036,0,.07,0,.105,0,0,.067,0,.133,0,.2a9.833,9.833,0,0,0,9.835,9.835,10.03,10.03,0,0,0,1.535-.12A9.835,9.835,0,0,0,71.2,209.3l1.5-1.5.631.509A9.83,9.83,0,0,0,90,201.085a9.818,9.818,0,0,0,9.983-9.978,9.827,9.827,0,0,0,9.982-9.987,9.829,9.829,0,0,0,8.4-15.186l9.02-18.892,13.561-11.67A2.782,2.782,0,0,0,141.34,131.566ZM29.658,106.09,40.9,113.24l-24.458,29.8-9.8-8.436Zm1.586,63.176,3.393-3.393c.1-.1.211-.2.322-.291a4.26,4.26,0,0,1,2.318-.941c.024,0,.049,0,.073,0,.121-.01.243-.016.365-.015a4.244,4.244,0,0,1,3.045,1.337,4.375,4.375,0,0,1-.188,6.054l-3.29,3.29a4.269,4.269,0,0,1-6.036-6.037Zm8.73,17.32a4.267,4.267,0,0,1,0-6.036l6.58-6.58a4.314,4.314,0,0,1,4.853-.838,4.255,4.255,0,0,1,2.352,4.408,4.5,4.5,0,0,1-1.271,2.572l-6.476,6.475a4.269,4.269,0,0,1-6.037,0Zm9.935,10.032a4.267,4.267,0,0,1,0-6.036L56.489,184a4.316,4.316,0,0,1,5.16-.677,4.248,4.248,0,0,1,2.038,4.314,4.51,4.51,0,0,1-1.265,2.5l-6.475,6.475a4.269,4.269,0,0,1-6.037,0Zm11.317,8.749a4.273,4.273,0,0,1,0-6.036l3.393-3.393c.1-.1.21-.2.32-.29l.008-.007a4.254,4.254,0,0,1,1.893-.879l.049-.006c.119-.022.24-.039.362-.05.049,0,.1,0,.147-.008.1-.005.2-.012.3-.011a4.241,4.241,0,0,1,3.045,1.337,3.858,3.858,0,0,1,.275.324,4.406,4.406,0,0,1-.481,5.747l-3.273,3.273A4.273,4.273,0,0,1,61.227,205.367Zm51.912-31.057a4.272,4.272,0,0,1-6.036,0,2.531,2.531,0,0,0-.189-.17L89.02,156.058a2.783,2.783,0,0,0-3.956,3.915l18.087,18.276.006.007a4.269,4.269,0,1,1-6.037,6.037l-12.1-12.225a2.783,2.783,0,0,0-3.955,3.915L92.98,188.021a2.633,2.633,0,0,0,.195.218,4.269,4.269,0,1,1-6.038,6.036l-6.6-6.673a2.783,2.783,0,0,0-3.956,3.914L83,198a2.479,2.479,0,0,0,.2.219,4.269,4.269,0,1,1-6.036,6.037,6.161,6.161,0,0,0-.631-.5c-.182-.139-.23-.235-.139-.456s.23-.427.322-.652c.1-.251.184-.51.264-.77a10.033,10.033,0,0,0,.361-4.281,9.734,9.734,0,0,0-8.3-8.377,9.925,9.925,0,0,0-2.383-8.955,9.762,9.762,0,0,0-7.01-3.076c-.1,0-.195,0-.293,0a9.739,9.739,0,0,0-9.641-10.032,10.008,10.008,0,0,0-2.374.252,9.739,9.739,0,0,0-9.542-8.35,9.857,9.857,0,0,0-6.718,2.527L20.316,147.09l25.735-31.352,8.2,2.243-10.712,18.9a9.836,9.836,0,0,0,3.708,13.4q.214.122.433.232l.034.016a9.9,9.9,0,0,0,1.18.495,9.834,9.834,0,0,0,11.758-4.45L67.615,134.3l12.429.881,33.1,33.1A4.276,4.276,0,0,1,113.139,174.31Zm1.153-12.756L83.245,130.507a2.466,2.466,0,0,0-.184-.169,2.785,2.785,0,0,0-1.586-.639l-15.218-1.08a2.828,2.828,0,0,0-2.618,1.4l-7.826,13.812a4.269,4.269,0,1,1-7.428-4.21l10.447-18.438,4.234-1.218.083-.028,15.8-4.563H98.04l23.834,30.3Zm11.227-20.245-22.04-28.033,11.249-7.154,20.595,26.751Zm0,0" transform="translate(0.001 -99.625)"/></g></g></g></svg>