<svg xmlns="http://www.w3.org/2000/svg" width="272.992" height="87.653" viewBox="0 0 272.992 87.653"><defs><style>.a,.b{fill:#fff;}.b{fill-rule:evenodd;}</style></defs><path class="a" d="M52.733,66.106l-16.4.521L39.7,75.45,43.738,86l16.423-.776Z" transform="translate(-23.917 -36.898)"/><path class="a" d="M89.554,40.028l-.015.006a20.863,20.863,0,0,0-7.178.852,18.958,18.958,0,0,0-8.14,4.516.216.216,0,0,0-.019.16L81.9,67.07a32.008,32.008,0,0,1,15.319-6Z" transform="translate(-34.744 -29.431)"/><path class="a" d="M39.563,139.114a4.933,4.933,0,0,1-1.963-.381,4.589,4.589,0,0,1-1.512-1.034,4.683,4.683,0,0,1-.973-1.522,4.939,4.939,0,0,1-.345-1.839,5.008,5.008,0,0,1,.345-1.849,4.74,4.74,0,0,1,.973-1.539,4.516,4.516,0,0,1,1.512-1.043,4.965,4.965,0,0,1,1.98-.381,4.774,4.774,0,0,1,1.955.389,4.683,4.683,0,0,1,1.495,1.034,4.444,4.444,0,0,1,.946,1.5,4.987,4.987,0,0,1,.328,1.8c0,.141-.007.273-.018.4s-.024.227-.036.309h-7.41a3.161,3.161,0,0,0,.292,1.113,2.892,2.892,0,0,0,.618.858,2.718,2.718,0,0,0,1.884.752,3.123,3.123,0,0,0,.769-.1,2.7,2.7,0,0,0,.7-.283,2.481,2.481,0,0,0,.566-.451,2.089,2.089,0,0,0,.389-.583l1.662.478a3.858,3.858,0,0,1-1.583,1.706,4.9,4.9,0,0,1-2.573.664m2.812-5.5a3.115,3.115,0,0,0-.291-1.079,2.826,2.826,0,0,0-.61-.841,2.724,2.724,0,0,0-.868-.538,2.82,2.82,0,0,0-1.043-.195,2.778,2.778,0,0,0-1.892.733,2.674,2.674,0,0,0-.6.841,3.238,3.238,0,0,0-.283,1.079Z" transform="translate(-23.471 -55.033)"/><path class="a" d="M58.783,137.305q-.39.177-1.035.4a4.322,4.322,0,0,1-1.406.221,2.859,2.859,0,0,1-.858-.124,2.127,2.127,0,0,1-.708-.371,1.693,1.693,0,0,1-.486-.645,2.358,2.358,0,0,1-.177-.964v-5.784H52.876v-1.5h1.237v-3.043h1.946v3.043h2.016v1.5H56.059V135.2a.851.851,0,0,0,.283.716,1.083,1.083,0,0,0,.69.221A2.157,2.157,0,0,0,57.81,136c.247-.094.43-.17.548-.229Z" transform="translate(-28.648 -53.879)"/><path class="a" d="M66.622,124.624h1.946v2.139H66.622Zm0,3.661h1.946v9.249H66.622Z" transform="translate(-32.579 -53.631)"/><path class="a" d="M79.573,139.114a3.545,3.545,0,0,1-1.652-.389,4.074,4.074,0,0,1-1.292-1.044,4.869,4.869,0,0,1-.84-1.529,5.646,5.646,0,0,1-.3-1.848,5.208,5.208,0,0,1,.327-1.857,4.851,4.851,0,0,1,.911-1.522,4.232,4.232,0,0,1,1.38-1.025,4.045,4.045,0,0,1,1.734-.372,3.62,3.62,0,0,1,1.909.513,4.075,4.075,0,0,1,1.362,1.325v-1.679h1.714v10.629a.653.653,0,0,0,.133.468.72.72,0,0,0,.433.168v1.662c-.153.025-.309.042-.469.054s-.308.018-.451.018a1.729,1.729,0,0,1-1.122-.38,1.265,1.265,0,0,1-.469-1.035V137.2a3.865,3.865,0,0,1-1.405,1.433,3.8,3.8,0,0,1-1.9.478m.708-1.662a2.411,2.411,0,0,0,1.53-.5,4.148,4.148,0,0,0,1.07-1.266v-2.441a2.1,2.1,0,0,0-.353-.795,3.007,3.007,0,0,0-.628-.646,3.335,3.335,0,0,0-.788-.442,2.245,2.245,0,0,0-.831-.169,2.418,2.418,0,0,0-1.132.266,2.853,2.853,0,0,0-.884.708,3.447,3.447,0,0,0-.583,3.4,3.072,3.072,0,0,0,.583.981,2.791,2.791,0,0,0,.884.663,2.563,2.563,0,0,0,1.132.249" transform="translate(-35.114 -55.033)"/><path class="a" d="M98.294,139.178a2.6,2.6,0,0,1-2.175-.946,4.516,4.516,0,0,1-.743-2.821v-5.659h1.947v5.27q0,2.495,1.751,2.494a2.747,2.747,0,0,0,1.592-.513,3.287,3.287,0,0,0,1.15-1.485v-5.765h1.945v6.95a.719.719,0,0,0,.124.478.614.614,0,0,0,.442.159V139c-.214.036-.4.059-.548.071s-.29.018-.407.018a1.174,1.174,0,0,1-1.238-1.008l-.035-.955a4.141,4.141,0,0,1-1.609,1.53,4.638,4.638,0,0,1-2.194.522" transform="translate(-40.801 -55.097)"/><path class="a" d="M118.35,139.114a4.928,4.928,0,0,1-1.963-.381,4.585,4.585,0,0,1-1.512-1.034,4.681,4.681,0,0,1-.973-1.522,4.925,4.925,0,0,1-.345-1.839,4.993,4.993,0,0,1,.345-1.849,4.738,4.738,0,0,1,.973-1.539,4.512,4.512,0,0,1,1.512-1.043,4.963,4.963,0,0,1,1.98-.381,4.773,4.773,0,0,1,1.954.389,4.694,4.694,0,0,1,1.5,1.034,4.443,4.443,0,0,1,.945,1.5,4.987,4.987,0,0,1,.328,1.8c0,.141-.006.273-.018.4s-.024.227-.036.309h-7.41a3.146,3.146,0,0,0,.291,1.113,2.907,2.907,0,0,0,.619.858,2.714,2.714,0,0,0,1.884.752,3.119,3.119,0,0,0,.769-.1,2.687,2.687,0,0,0,.7-.283,2.481,2.481,0,0,0,.566-.451,2.09,2.09,0,0,0,.389-.583l1.662.478a3.856,3.856,0,0,1-1.582,1.706,4.9,4.9,0,0,1-2.573.664m2.812-5.5a3.116,3.116,0,0,0-.292-1.079,2.813,2.813,0,0,0-.61-.841,2.728,2.728,0,0,0-.867-.538,2.823,2.823,0,0,0-1.043-.195,2.778,2.778,0,0,0-1.892.733,2.686,2.686,0,0,0-.6.841,3.255,3.255,0,0,0-.283,1.079Z" transform="translate(-45.999 -55.033)"/><path class="a" d="M137.569,137.305q-.39.177-1.035.4a4.322,4.322,0,0,1-1.406.221,2.858,2.858,0,0,1-.858-.124,2.127,2.127,0,0,1-.708-.371,1.692,1.692,0,0,1-.486-.645,2.358,2.358,0,0,1-.177-.964v-5.784h-1.237v-1.5H132.9v-3.043h1.946v3.043h2.016v1.5h-2.016V135.2a.851.851,0,0,0,.283.716,1.083,1.083,0,0,0,.69.221A2.157,2.157,0,0,0,136.6,136c.247-.094.43-.17.548-.229Z" transform="translate(-51.177 -53.879)"/><path class="a" d="M147.646,139.114a3.431,3.431,0,0,1-1.247-.221,3.021,3.021,0,0,1-.99-.61,2.854,2.854,0,0,1-.654-.92,2.769,2.769,0,0,1-.239-1.15,2.472,2.472,0,0,1,.283-1.185,2.766,2.766,0,0,1,.8-.92,3.921,3.921,0,0,1,1.238-.6,5.564,5.564,0,0,1,1.583-.213,7.271,7.271,0,0,1,1.291.116,6.516,6.516,0,0,1,1.15.309v-.636a2.143,2.143,0,0,0-.584-1.6,2.292,2.292,0,0,0-1.679-.575,4.067,4.067,0,0,0-1.46.273,7.37,7.37,0,0,0-1.477.787l-.6-1.237a6.558,6.558,0,0,1,3.714-1.2,4.236,4.236,0,0,1,2.971.973,3.6,3.6,0,0,1,1.061,2.793v3.343a.724.724,0,0,0,.124.478.59.59,0,0,0,.424.159v1.662a4.55,4.55,0,0,1-.522.07c-.159.012-.3.019-.433.019a1.372,1.372,0,0,1-.858-.3,1.175,1.175,0,0,1-.363-.708l-.053-.583a4.124,4.124,0,0,1-1.53,1.246,4.487,4.487,0,0,1-1.954.434m.531-1.433a3.5,3.5,0,0,0,1.335-.256,2.313,2.313,0,0,0,.982-.717.9.9,0,0,0,.371-.672v-1.22a5.976,5.976,0,0,0-1.053-.3,5.87,5.87,0,0,0-1.088-.106,2.973,2.973,0,0,0-1.707.451,1.383,1.383,0,0,0-.663,1.194,1.507,1.507,0,0,0,.513,1.158,1.867,1.867,0,0,0,1.309.468" transform="translate(-54.852 -55.033)"/><path class="a" d="M166.327,139.114a7.538,7.538,0,0,1-1.14-.089,8.3,8.3,0,0,1-1.133-.256,7.58,7.58,0,0,1-1.06-.407,4.791,4.791,0,0,1-.893-.54l.813-1.31a5.875,5.875,0,0,0,3.378,1.187,2.529,2.529,0,0,0,1.4-.336,1.077,1.077,0,0,0,.513-.955.9.9,0,0,0-.574-.858,10.053,10.053,0,0,0-1.831-.575,15.09,15.09,0,0,1-1.485-.433,4.181,4.181,0,0,1-1.008-.5,1.645,1.645,0,0,1-.566-.654,2.144,2.144,0,0,1-.176-.91,2.694,2.694,0,0,1,.283-1.256,2.785,2.785,0,0,1,.769-.928,3.4,3.4,0,0,1,1.15-.575,5.027,5.027,0,0,1,1.424-.195,6.01,6.01,0,0,1,1.945.318,6.133,6.133,0,0,1,1.68.867l-.831,1.185a4.643,4.643,0,0,0-2.83-.99,2.4,2.4,0,0,0-1.255.308,1.064,1.064,0,0,0-.513.982.985.985,0,0,0,.106.478.9.9,0,0,0,.345.336,2.767,2.767,0,0,0,.628.256c.258.078.577.163.955.257q.955.23,1.644.46a4.558,4.558,0,0,1,1.141.539,1.977,1.977,0,0,1,.663.725,2.174,2.174,0,0,1,.212,1,2.605,2.605,0,0,1-.266,1.185,2.564,2.564,0,0,1-.751.9,3.582,3.582,0,0,1-1.185.575,5.545,5.545,0,0,1-1.547.2" transform="translate(-59.88 -55.033)"/><path class="a" d="M191.287,139.114a3.438,3.438,0,0,1-1.247-.221,3.028,3.028,0,0,1-.99-.61,2.854,2.854,0,0,1-.654-.92,2.758,2.758,0,0,1-.239-1.15,2.481,2.481,0,0,1,.283-1.185,2.766,2.766,0,0,1,.8-.92,3.925,3.925,0,0,1,1.239-.6,5.559,5.559,0,0,1,1.582-.213,7.271,7.271,0,0,1,1.291.116,6.533,6.533,0,0,1,1.15.309v-.636a2.143,2.143,0,0,0-.584-1.6,2.292,2.292,0,0,0-1.679-.575,4.067,4.067,0,0,0-1.46.273,7.371,7.371,0,0,0-1.477.787l-.6-1.237a6.558,6.558,0,0,1,3.714-1.2,4.234,4.234,0,0,1,2.971.973,3.6,3.6,0,0,1,1.061,2.793v3.343a.728.728,0,0,0,.124.478.593.593,0,0,0,.425.159v1.662a4.6,4.6,0,0,1-.523.07q-.238.018-.433.019a1.369,1.369,0,0,1-.858-.3,1.167,1.167,0,0,1-.363-.708l-.053-.583a4.127,4.127,0,0,1-1.53,1.246,4.486,4.486,0,0,1-1.954.434m.53-1.433a3.5,3.5,0,0,0,1.335-.256,2.314,2.314,0,0,0,.982-.717.9.9,0,0,0,.371-.672v-1.22a5.958,5.958,0,0,0-1.053-.3,5.864,5.864,0,0,0-1.088-.106,2.975,2.975,0,0,0-1.707.451,1.383,1.383,0,0,0-.663,1.194,1.507,1.507,0,0,0,.513,1.158,1.868,1.868,0,0,0,1.309.468" transform="translate(-67.33 -55.033)"/><path class="a" d="M209.625,139.178a2.6,2.6,0,0,1-2.176-.946,4.517,4.517,0,0,1-.743-2.821v-5.659h1.946v5.27q0,2.495,1.75,2.494a2.743,2.743,0,0,0,1.592-.513,3.289,3.289,0,0,0,1.15-1.485v-5.765h1.944v6.95a.723.723,0,0,0,.125.478.613.613,0,0,0,.441.159V139c-.212.036-.395.059-.548.071s-.29.018-.408.018a1.174,1.174,0,0,1-1.237-1.008l-.036-.955a4.122,4.122,0,0,1-1.609,1.53,4.63,4.63,0,0,1-2.192.522" transform="translate(-72.635 -55.097)"/><path class="a" d="M230.5,137.305c-.259.118-.6.251-1.034.4a4.332,4.332,0,0,1-1.407.221,2.858,2.858,0,0,1-.858-.124,2.127,2.127,0,0,1-.708-.371,1.692,1.692,0,0,1-.486-.645,2.37,2.37,0,0,1-.176-.964v-5.784H224.59v-1.5h1.239v-3.043h1.945v3.043h2.016v1.5h-2.016V135.2a.851.851,0,0,0,.283.716,1.083,1.083,0,0,0,.69.221,2.147,2.147,0,0,0,.778-.141c.247-.094.43-.17.548-.229Z" transform="translate(-77.749 -53.879)"/><path class="a" d="M242.078,139.113a4.819,4.819,0,0,1-1.972-.388,4.533,4.533,0,0,1-2.45-2.573,5.16,5.16,0,0,1,0-3.661,4.509,4.509,0,0,1,.964-1.529,4.7,4.7,0,0,1,1.5-1.044,5.1,5.1,0,0,1,3.908,0,4.7,4.7,0,0,1,1.5,1.044,4.531,4.531,0,0,1,.964,1.529,5.16,5.16,0,0,1,0,3.661,4.545,4.545,0,0,1-.964,1.529,4.686,4.686,0,0,1-1.5,1.044,4.779,4.779,0,0,1-1.955.388m-2.758-4.774a3.491,3.491,0,0,0,.211,1.237,3.086,3.086,0,0,0,.583.982,2.723,2.723,0,0,0,.875.654,2.586,2.586,0,0,0,2.176,0,2.651,2.651,0,0,0,.875-.663,3.18,3.18,0,0,0,.584-.99,3.684,3.684,0,0,0,0-2.468,3.181,3.181,0,0,0-.584-1,2.671,2.671,0,0,0-.875-.663,2.509,2.509,0,0,0-1.088-.239,2.412,2.412,0,0,0-1.07.248,2.782,2.782,0,0,0-.875.672,3.318,3.318,0,0,0-.592,1,3.383,3.383,0,0,0-.221,1.23" transform="translate(-81.389 -55.033)"/><path class="a" d="M258.953,139.114a3.439,3.439,0,0,1-1.247-.221,3.018,3.018,0,0,1-.99-.61,2.821,2.821,0,0,1-.654-.92,2.747,2.747,0,0,1-.239-1.15,2.481,2.481,0,0,1,.283-1.185,2.766,2.766,0,0,1,.8-.92,3.94,3.94,0,0,1,1.239-.6,5.563,5.563,0,0,1,1.582-.213,7.264,7.264,0,0,1,1.291.116,6.5,6.5,0,0,1,1.15.309v-.636a2.143,2.143,0,0,0-.584-1.6,2.293,2.293,0,0,0-1.679-.575,4.067,4.067,0,0,0-1.46.273,7.39,7.39,0,0,0-1.477.787l-.6-1.237a6.559,6.559,0,0,1,3.714-1.2,4.236,4.236,0,0,1,2.972.973,3.6,3.6,0,0,1,1.06,2.793v3.343a.723.723,0,0,0,.125.478.588.588,0,0,0,.424.159v1.662a4.581,4.581,0,0,1-.523.07q-.238.018-.432.019a1.369,1.369,0,0,1-.858-.3,1.163,1.163,0,0,1-.362-.708l-.054-.583a4.127,4.127,0,0,1-1.53,1.246,4.487,4.487,0,0,1-1.954.434m.531-1.433a3.508,3.508,0,0,0,1.335-.256,2.314,2.314,0,0,0,.982-.717.9.9,0,0,0,.371-.672v-1.22a5.967,5.967,0,0,0-1.052-.3,5.877,5.877,0,0,0-1.088-.106,2.974,2.974,0,0,0-1.706.451,1.382,1.382,0,0,0-.664,1.194,1.505,1.505,0,0,0,.513,1.158,1.866,1.866,0,0,0,1.309.468" transform="translate(-86.68 -55.033)"/><path class="a" d="M278.091,137.712a4.079,4.079,0,0,1-1.76-.381,4.327,4.327,0,0,1-1.389-1.034,4.847,4.847,0,0,1-.91-1.522,5.187,5.187,0,0,1-.327-1.857,5.55,5.55,0,0,1,.309-1.865,4.777,4.777,0,0,1,.858-1.521,4.083,4.083,0,0,1,1.317-1.026,3.72,3.72,0,0,1,1.671-.381,3.567,3.567,0,0,1,1.929.53,3.836,3.836,0,0,1,1.327,1.38v-5.411h1.945v10.61a.554.554,0,0,0,.566.638v1.662c-.2.036-.378.059-.531.071s-.295.018-.423.018q-1.1-.108-1.239-1.008l-.035-.76a3.627,3.627,0,0,1-1.414,1.38,3.941,3.941,0,0,1-1.893.478m.5-1.662a2.369,2.369,0,0,0,.778-.141,3.082,3.082,0,0,0,.76-.389,2.919,2.919,0,0,0,.619-.585,2.019,2.019,0,0,0,.373-.724v-2.424a2.971,2.971,0,0,0-.443-.786,3.492,3.492,0,0,0-.646-.637,3.047,3.047,0,0,0-.77-.426,2.4,2.4,0,0,0-1.936.116,2.792,2.792,0,0,0-.866.708,3.214,3.214,0,0,0-.558,1.017,3.656,3.656,0,0,0-.194,1.176,3.27,3.27,0,0,0,.221,1.2,3.126,3.126,0,0,0,.6.981,2.855,2.855,0,0,0,.911.663,2.679,2.679,0,0,0,1.15.249" transform="translate(-91.793 -53.631)"/><path class="a" d="M302.35,137.535h-1.945v-5.182a3.132,3.132,0,0,0-.46-1.884,1.543,1.543,0,0,0-1.309-.609,2.166,2.166,0,0,0-.8.159,2.928,2.928,0,0,0-.77.45,3.7,3.7,0,0,0-.655.69,2.825,2.825,0,0,0-.433.875v5.5h-1.946v-12.91h1.946v5.517a3.982,3.982,0,0,1,1.459-1.486,3.891,3.891,0,0,1,1.99-.53,2.929,2.929,0,0,1,1.415.31,2.471,2.471,0,0,1,.9.822,3.306,3.306,0,0,1,.469,1.194,7.537,7.537,0,0,1,.133,1.442Z" transform="translate(-97.607 -53.631)"/><path class="a" d="M316.466,139.114a4.933,4.933,0,0,1-1.963-.381,4.585,4.585,0,0,1-1.512-1.034,4.679,4.679,0,0,1-.972-1.522,4.911,4.911,0,0,1-.345-1.839,4.979,4.979,0,0,1,.345-1.849,4.735,4.735,0,0,1,.972-1.539,4.512,4.512,0,0,1,1.512-1.043,4.967,4.967,0,0,1,1.982-.381,4.772,4.772,0,0,1,1.954.389,4.686,4.686,0,0,1,1.5,1.034,4.455,4.455,0,0,1,.946,1.5,5,5,0,0,1,.326,1.8c0,.141-.006.273-.016.4s-.025.227-.036.309h-7.41a3.176,3.176,0,0,0,.291,1.113,2.946,2.946,0,0,0,.619.858,2.714,2.714,0,0,0,1.884.752,3.109,3.109,0,0,0,.768-.1,2.671,2.671,0,0,0,.7-.283,2.5,2.5,0,0,0,.566-.451,2.106,2.106,0,0,0,.389-.583l1.663.478a3.87,3.87,0,0,1-1.583,1.706,4.9,4.9,0,0,1-2.574.664m2.813-5.5a3.131,3.131,0,0,0-.291-1.079,2.793,2.793,0,0,0-.611-.841,2.721,2.721,0,0,0-.867-.538,2.818,2.818,0,0,0-1.043-.195,2.775,2.775,0,0,0-1.892.733,2.674,2.674,0,0,0-.6.841,3.22,3.22,0,0,0-.282,1.079Z" transform="translate(-102.65 -55.033)"/><path class="a" d="M334.079,139.114a7.564,7.564,0,0,1-1.142-.089,8.36,8.36,0,0,1-1.132-.256,7.685,7.685,0,0,1-1.06-.407,4.74,4.74,0,0,1-.893-.54l.813-1.31a5.875,5.875,0,0,0,3.377,1.187,2.528,2.528,0,0,0,1.4-.336,1.076,1.076,0,0,0,.514-.955.9.9,0,0,0-.576-.858,9.973,9.973,0,0,0-1.829-.575,15.086,15.086,0,0,1-1.485-.433,4.181,4.181,0,0,1-1.008-.5,1.632,1.632,0,0,1-.566-.654,2.133,2.133,0,0,1-.177-.91,2.685,2.685,0,0,1,.283-1.256,2.792,2.792,0,0,1,.768-.928,3.4,3.4,0,0,1,1.151-.575,5.022,5.022,0,0,1,1.423-.195,6.006,6.006,0,0,1,1.944.318,6.151,6.151,0,0,1,1.682.867l-.831,1.185a4.648,4.648,0,0,0-2.83-.99,2.4,2.4,0,0,0-1.256.308,1.065,1.065,0,0,0-.514.982.969.969,0,0,0,.108.478.894.894,0,0,0,.343.336,2.8,2.8,0,0,0,.628.256c.258.078.578.163.955.257.637.154,1.184.307,1.645.46a4.57,4.57,0,0,1,1.14.539,1.98,1.98,0,0,1,.664.725,2.184,2.184,0,0,1,.212,1,2.614,2.614,0,0,1-.265,1.185,2.582,2.582,0,0,1-.752.9,3.6,3.6,0,0,1-1.185.575,5.545,5.545,0,0,1-1.547.2" transform="translate(-107.848 -55.033)"/><path class="a" d="M347.017,124.624h1.946v2.139h-1.946Zm0,3.661h1.946v9.249h-1.946Z" transform="translate(-112.756 -53.631)"/><path class="a" d="M358.852,139l-3.537-9.249h2.016l2.635,7.6,2.671-7.6h1.839L360.939,139Z" transform="translate(-115.129 -55.097)"/><path class="a" d="M375.633,139.114a3.432,3.432,0,0,1-1.247-.221,3.029,3.029,0,0,1-.99-.61,2.843,2.843,0,0,1-.654-.92,2.758,2.758,0,0,1-.239-1.15,2.472,2.472,0,0,1,.283-1.185,2.766,2.766,0,0,1,.8-.92,3.928,3.928,0,0,1,1.238-.6,5.564,5.564,0,0,1,1.583-.213,7.271,7.271,0,0,1,1.291.116,6.533,6.533,0,0,1,1.15.309v-.636a2.143,2.143,0,0,0-.584-1.6,2.293,2.293,0,0,0-1.679-.575,4.067,4.067,0,0,0-1.46.273,7.371,7.371,0,0,0-1.477.787l-.6-1.237a6.558,6.558,0,0,1,3.714-1.2,4.234,4.234,0,0,1,2.971.973,3.6,3.6,0,0,1,1.061,2.793v3.343a.723.723,0,0,0,.124.478.591.591,0,0,0,.424.159v1.662a4.57,4.57,0,0,1-.522.07q-.238.018-.433.019a1.369,1.369,0,0,1-.858-.3,1.167,1.167,0,0,1-.363-.708l-.053-.583a4.13,4.13,0,0,1-1.53,1.246,4.493,4.493,0,0,1-1.955.434m.531-1.433a3.5,3.5,0,0,0,1.335-.256,2.314,2.314,0,0,0,.982-.717.9.9,0,0,0,.371-.672v-1.22a5.957,5.957,0,0,0-1.053-.3,5.863,5.863,0,0,0-1.087-.106,2.975,2.975,0,0,0-1.707.451,1.383,1.383,0,0,0-.663,1.194,1.507,1.507,0,0,0,.513,1.158,1.867,1.867,0,0,0,1.309.468" transform="translate(-120.043 -55.033)"/><path class="a" d="M394.315,139.114a7.555,7.555,0,0,1-1.141-.089,8.334,8.334,0,0,1-1.132-.256,7.658,7.658,0,0,1-1.061-.407,4.784,4.784,0,0,1-.893-.54l.813-1.31a5.875,5.875,0,0,0,3.378,1.187,2.53,2.53,0,0,0,1.4-.336,1.077,1.077,0,0,0,.513-.955.9.9,0,0,0-.576-.858,10,10,0,0,0-1.83-.575,15.152,15.152,0,0,1-1.485-.433,4.182,4.182,0,0,1-1.008-.5,1.638,1.638,0,0,1-.566-.654,2.132,2.132,0,0,1-.177-.91,2.694,2.694,0,0,1,.283-1.256,2.785,2.785,0,0,1,.769-.928,3.4,3.4,0,0,1,1.15-.575,5.022,5.022,0,0,1,1.423-.195,6.011,6.011,0,0,1,1.945.318,6.147,6.147,0,0,1,1.681.867l-.831,1.185a4.646,4.646,0,0,0-2.83-.99,2.4,2.4,0,0,0-1.256.308,1.064,1.064,0,0,0-.513.982.977.977,0,0,0,.107.478.9.9,0,0,0,.344.336,2.774,2.774,0,0,0,.628.256c.259.078.578.163.955.257q.955.23,1.645.46a4.563,4.563,0,0,1,1.14.539,1.978,1.978,0,0,1,.663.725,2.175,2.175,0,0,1,.212,1,2.614,2.614,0,0,1-.265,1.185,2.574,2.574,0,0,1-.752.9,3.589,3.589,0,0,1-1.185.575,5.544,5.544,0,0,1-1.547.2" transform="translate(-125.072 -55.033)"/><path class="b" d="M346.48,66.309a8.5,8.5,0,0,0-2.381-4.175,9.812,9.812,0,0,0-5.261-2.881A66.835,66.835,0,0,0,327.1,58.57c-1.048,0-2.034.012-3.013.059-.8-.025-1.6-.035-2.446-.035a66.826,66.826,0,0,0-11.733.682,9.806,9.806,0,0,0-5.262,2.881,8.1,8.1,0,0,0-2.014,3.037,11.369,11.369,0,0,0-1.08,3.992c-.122,1.242.52,1.373,1.187,1.373h10.409c1.287,0,1.353-.375,1.625-1.289a2.462,2.462,0,0,1,1.611-1.691,33.077,33.077,0,0,1,7.056-.6h1.707c3.992,0,6.453.334,7.476,1.1,1.017.683,1.525,2.374,1.525,5.1V75.05a6.493,6.493,0,0,0-3.387-2.2,28.212,28.212,0,0,0-6.454-.509h-.174a106.193,106.193,0,0,0-14.193.6,11.679,11.679,0,0,0-6.208,2.795c-2.039,1.789-3.057,4.77-3.057,8.849,0,3.652.857,6.287,2.549,7.9a11.41,11.41,0,0,0,4.588,2.29,39.476,39.476,0,0,0,8.16.595c3.492,0,6.214,0,8.16-.163a7.007,7.007,0,0,0,1.365-.084,17.655,17.655,0,0,0,4.589-.933c2.114-.93,3.648-1.692,4.579-3.715v-.017h.008l-.008.017V93.2c0,.99.478,1.317,1.275,1.317h9.808a1.18,1.18,0,0,0,1.324-1.316V73.446a30.084,30.084,0,0,0-.6-7.137M330.745,86.186c-1.532.52-3.475.77-7.3.858h-1.357c-3.485,0-5.874-.254-7.137-.763a2.8,2.8,0,0,1-1.874-2.9,3,3,0,0,1,1.954-2.8c1.023-.595,3.745-.846,8.159-.846h.254c4.929.079,6.521.124,7.642.421a2.8,2.8,0,0,1,2.121,2.9,3.129,3.129,0,0,1-2.461,3.135" transform="translate(-99.506 -34.743)"/><path class="b" d="M176.594,57.265c-3.82,0-6.764.431-8.848,1.384a11.125,11.125,0,0,0-4.944,4.861v-4.09a1.146,1.146,0,0,0-1.286-1.293h-10a1.16,1.16,0,0,0-1.293,1.283V92.58a1.268,1.268,0,0,0,1.348,1.322h9.994a1.21,1.21,0,0,0,1.314-1.323V79.052a34.516,34.516,0,0,1,.349-5.992,6.622,6.622,0,0,1,1.3-3.2c1.313-1.661,3.561-2.529,6.779-2.529,3.382,0,5.466.786,6.334,2.352a6.3,6.3,0,0,1,.656,2.9,1.285,1.285,0,0,0,1.337,1.434h9.991a1.3,1.3,0,0,0,1.342-1.377c0-.448.046-.768.046-.961,0-5.383-1.12-9.118-3.2-11.287-2.085-2.084-5.912-3.123-11.214-3.123" transform="translate(-56.484 -34.37)"/><path class="b" d="M381.219,39.753V87.1a1.445,1.445,0,0,0,1.443,1.485h10.51a1.3,1.3,0,0,0,1.408-1.412V39.729a1.338,1.338,0,0,0-1.432-1.442H382.639a1.455,1.455,0,0,0-1.42,1.466" transform="translate(-122.536 -28.943)"/><path class="b" d="M265.106,66.309a8.5,8.5,0,0,0-2.381-4.175,9.807,9.807,0,0,0-5.261-2.881,66.825,66.825,0,0,0-11.733-.683c-1.048,0-2.034.012-3.013.059-.8-.025-1.6-.035-2.447-.035a66.832,66.832,0,0,0-11.733.682,9.811,9.811,0,0,0-5.262,2.881,8.106,8.106,0,0,0-2.014,3.037,11.384,11.384,0,0,0-1.081,3.992c-.122,1.242.521,1.373,1.187,1.373h10.41c1.286,0,1.352-.375,1.625-1.289a2.462,2.462,0,0,1,1.611-1.691,33.072,33.072,0,0,1,7.056-.6h1.707c3.992,0,6.453.334,7.477,1.1,1.017.683,1.525,2.374,1.525,5.1V75.05a6.5,6.5,0,0,0-3.387-2.2,28.219,28.219,0,0,0-6.454-.509h-.174a106.207,106.207,0,0,0-14.193.6,11.679,11.679,0,0,0-6.207,2.795c-2.039,1.789-3.057,4.77-3.057,8.849,0,3.652.857,6.287,2.548,7.9a11.413,11.413,0,0,0,4.589,2.29,39.472,39.472,0,0,0,8.16.595c3.492,0,6.214,0,8.16-.163a7,7,0,0,0,1.365-.084,17.648,17.648,0,0,0,4.589-.933c2.114-.93,3.649-1.692,4.579-3.715v-.017h.008l-.008.017V93.2c0,.99.478,1.317,1.275,1.317h9.809a1.18,1.18,0,0,0,1.323-1.316V73.446a30.047,30.047,0,0,0-.6-7.137M249.371,86.186c-1.532.52-3.475.77-7.3.858h-1.357c-3.485,0-5.873-.254-7.137-.763a2.8,2.8,0,0,1-1.874-2.9,3,3,0,0,1,1.954-2.8c1.024-.595,3.746-.846,8.16-.846h.254c4.929.079,6.521.124,7.642.421a2.8,2.8,0,0,1,2.12,2.9,3.128,3.128,0,0,1-2.461,3.135" transform="translate(-76.238 -34.743)"/><path class="a" d="M75.417,88.124c-4.222-.054-10.289.693-14.3-9.109q-5.433-13.291-10.76-26.627a.954.954,0,0,0-1.1-.74c-5.388.2-10.777.365-16.165.546-1.894.064-3.789.148-5.812.228l9,24.586c.36,0,13.294-.458,19.45-.675a3.36,3.36,0,1,1,.235,6.7q-10.56.394-21.12.769c-2.493.089-3.46-.561-4.313-2.888q-3.485-9.511-6.966-19.024c-1.462-3.982-2.945-7.955-4.419-11.933-.184-.573-1.108-4.1,3.19-4.1,6.068-.251,12.137-.471,18.206-.7,2.329-.086,4.66-.151,7.115-.229-.476-1.332-.88-2.6-1.382-3.83a3.93,3.93,0,0,1,.7-4.3A31.477,31.477,0,0,1,64.257,25.937c8.726-1.65,14.775-.047,15.689.241a4,4,0,0,1,2.92,2.369c2,5.4,4.044,10.784,5.966,16.211,1.9,5.372,3.677,10.788,5.5,16.187.631,1.935-1.1,3.929-2.761,4.286-4.478.959-8.869,2.1-13.225,3.457A28.11,28.11,0,0,0,70.559,72.5c-3.854,2.691-2.434,7.49-.468,8.261,3.038,1.19,10.732.308,15.484-.041a145.61,145.61,0,0,0,17.366-2.427,3,3,0,0,1,3.73,2.1c.943,2.891-.925,4.2-2.316,4.475-7.526,1.942-28.608,3.269-28.939,3.257M86.638,59.547a1.534,1.534,0,0,0-.041-.25q-4.658-13.138-9.343-26.264a1.355,1.355,0,0,0-.9-.7,24.176,24.176,0,0,0-7.579-.371,24.681,24.681,0,0,0-15.289,7.655.855.855,0,0,0-.2,1.051c3.086,8.249,10.539,27.414,11.076,28.776.125-.04-.034.035,0,0A28.134,28.134,0,0,1,76.2,62.485c3.4-1.13,6.906-1.957,10.436-2.938" transform="translate(-18.946 -25.202)"/></svg>